<svg width="20" height="20" viewBox="0 0 30 30" fill="none" xmlns="http://www.w3.org/2000/svg">
<g id="Component 24">
<path id="Vector" d="M26.4 3.44262H25.2V2.95082C25.2 1.32344 23.5854 0 21.6 0H3.6C1.6146 0 0 1.32344 0 2.95082V23.6066C0 25.2339 1.6146 26.5574 3.6 26.5574H4.8V27.0492C4.8 28.6766 6.4146 30 8.4 30H26.4C28.3854 30 30 28.6766 30 27.0492V6.39344C30 4.76607 28.3854 3.44262 26.4 3.44262ZM3.6 24.5902C2.9382 24.5902 2.4 24.149 2.4 23.6066V2.95082C2.4 2.40836 2.9382 1.96721 3.6 1.96721H21.6C22.2618 1.96721 22.8 2.40836 22.8 2.95082V3.44262H8.4C6.4146 3.44262 4.8 4.76607 4.8 6.39344V24.5902H3.6ZM27.6 27.0492C27.6 27.5916 27.0618 28.0328 26.4 28.0328H8.4C7.7382 28.0328 7.2 27.5916 7.2 27.0492V6.39344C7.2 5.85098 7.7382 5.40984 8.4 5.40984H26.4C27.0618 5.40984 27.6 5.85098 27.6 6.39344V27.0492Z" fill="#6B6A6A"/>
<path id="Vector_2" d="M11.7515 15.4495C11.9813 15.6379 12.2872 15.7377 12.5998 15.7377C12.7546 15.7377 12.9107 15.7131 13.0595 15.663C13.5077 15.5105 13.7998 15.152 13.7998 14.7541V8.85247H22.7999C23.4623 8.85247 23.9999 8.41181 23.9999 7.86886C23.9999 7.32591 23.4623 6.88525 22.7999 6.88525H12.5998C11.9374 6.88525 11.3998 7.32591 11.3998 7.86886V12.3797L11.0482 12.0915C10.5796 11.7074 9.82005 11.7074 9.35145 12.0915C8.88285 12.4756 8.88285 13.0982 9.35145 13.4823L11.7515 15.4495Z" fill="#6B6A6A"/>
<path id="Vector_3" d="M21 14.7541C21 14.2112 20.4624 13.7705 19.8 13.7705H19.6968C20.1438 13.3948 20.4 12.8798 20.4 12.3546C20.4 11.2372 19.2906 10.3279 17.9274 10.3279H16.8C16.1376 10.3279 15.6 10.7685 15.6 11.3115C15.6 11.8544 16.1376 12.2951 16.8 12.2951H17.9274C17.967 12.2951 18 12.3221 17.979 12.3969L15.9516 14.0587C15.6084 14.34 15.5058 14.763 15.6912 15.1308C15.8772 15.4982 16.3146 15.7377 16.8 15.7377H19.8C20.4624 15.7377 21 15.2971 21 14.7541ZM14.4 19.1803C13.7376 19.1803 13.2 19.621 13.2 20.1639C13.2 20.7069 13.7376 21.1476 14.4 21.1476H15.6C16.2624 21.1476 16.8 20.7069 16.8 20.1639C16.8 19.621 16.2624 19.1803 15.6 19.1803H14.4ZM21.6 24.5902H10.2C9.5376 24.5902 9 25.0308 9 25.5738C9 26.1167 9.5376 26.5574 10.2 26.5574H21.6C22.2624 26.5574 22.8 26.1167 22.8 25.5738C22.8 25.0308 22.2624 24.5902 21.6 24.5902ZM12.12 17.4098C11.5884 17.0833 10.8378 17.1728 10.44 17.6061C9.0624 19.112 9.0624 21.2154 10.44 22.7208C10.6758 22.978 11.0358 23.1143 11.4012 23.1143C11.6514 23.1143 11.904 23.0503 12.12 22.9176C12.6504 22.592 12.7572 21.9753 12.3594 21.5405C11.6178 20.73 11.6178 19.5974 12.3594 18.7864C12.7578 18.3521 12.6504 17.7354 12.12 17.4098ZM17.88 22.918C18.096 23.0513 18.3486 23.1148 18.5988 23.1148C18.9636 23.1148 19.3242 22.979 19.56 22.7213C20.9376 21.2154 20.9376 19.112 19.56 17.6066C19.1628 17.1728 18.4122 17.0838 17.88 17.4103C17.3496 17.7359 17.2428 18.3526 17.6406 18.7874C18.3822 19.5979 18.3822 20.7305 17.6406 21.5415C17.2422 21.9757 17.3496 22.5925 17.88 22.918ZM24.6 19.1803H22.8C22.1376 19.1803 21.6 19.621 21.6 20.1639C21.6 20.7069 22.1376 21.1476 22.8 21.1476H24.6C25.2624 21.1476 25.8 20.7069 25.8 20.1639C25.8 19.621 25.2624 19.1803 24.6 19.1803Z" fill="#6B6A6A"/>
</g>
</svg>
