<svg width="20" height="20" viewBox="0 0 30 30" fill="none" xmlns="http://www.w3.org/2000/svg">
<path id="Vector" d="M6.05909 5.78431H5.4313L5.74519 5.10245L6.05909 5.78431ZM29.8554 5.85016L22.3469 0.109277C22.2399 0.0274218 22.124 0.000175781 22.0348 0.000175781C21.9546 0.000175781 21.8832 0.0138281 21.8476 0.0274804C21.7673 0.054785 21.5622 0.143379 21.5622 0.348574V5.06677C21.5622 5.83042 22.3737 6.45022 23.3724 6.45022H29.5433C29.8109 6.45022 29.9268 6.30022 29.9625 6.23887C29.9981 6.17137 30.0605 6.00093 29.8554 5.85016ZM19.8316 0C19.7959 0.115898 19.7781 0.2325 19.7781 0.348398V5.06659C19.7781 6.58018 21.3921 7.81364 23.3727 7.81364H29.5436C29.7033 7.81364 29.8557 7.80063 29.9974 7.77954V28.303C29.9974 29.2371 28.9995 30 27.7778 30H2.21956C0.989808 30 0 29.2371 0 28.303V1.6984C0 0.763651 0.989808 0 2.21956 0H19.8316ZM10.2123 3.95864C9.71998 3.95864 9.32049 4.26345 9.32049 4.6405C9.32049 5.01755 9.71998 5.32235 10.2123 5.32235H11.4037V6.23395C11.4037 6.611 11.8032 6.91581 12.2955 6.91581C12.7886 6.91581 13.1873 6.611 13.1873 6.23395V5.32229H14.3796C14.8719 5.32229 15.2714 5.01749 15.2714 4.64044C15.2714 4.26339 14.8719 3.95859 14.3796 3.95859H13.1873V3.04704C13.1873 2.66999 12.7886 2.36519 12.2955 2.36519C11.8032 2.36519 11.4037 2.66999 11.4037 3.04704V3.95864H10.2123ZM2.71178 7.58729C2.54862 7.94319 2.79293 8.33184 3.25757 8.45729C3.35474 8.48389 3.45559 8.49543 3.55361 8.49543C3.92099 8.49543 4.26523 8.32018 4.39451 8.03998L4.80474 7.14819H6.68534L7.09641 8.03998C7.25872 8.39524 7.76971 8.58409 8.23343 8.45729C8.69806 8.33178 8.94237 7.94325 8.7783 7.58729L6.58641 2.8207C6.46073 2.548 6.12361 2.36525 5.7455 2.36525C5.36647 2.36525 5.02935 2.54794 4.90367 2.8207L2.71178 7.58729ZM26.4456 25.6473C26.9388 25.6473 27.3374 25.3419 27.3374 24.9655C27.3374 24.5884 26.9388 24.2836 26.4456 24.2836H3.55361C3.06047 24.2836 2.66181 24.5884 2.66181 24.9655C2.66181 25.3419 3.06047 25.6473 3.55361 25.6473H26.4456ZM3.55361 18.5659C3.06047 18.5659 2.66181 18.8707 2.66181 19.2478C2.66181 19.6248 3.06047 19.9296 3.55361 19.9296H26.4457C26.9389 19.9296 27.3375 19.6248 27.3375 19.2478C27.3375 18.8707 26.9389 18.5659 26.4457 18.5659H3.55361ZM3.55361 12.8489C3.06047 12.8489 2.66181 13.1537 2.66181 13.5307C2.66181 13.9078 3.06047 14.2126 3.55361 14.2126H20.7028C21.195 14.2126 21.5946 13.9078 21.5946 13.5307C21.5946 13.1537 21.1951 12.8489 20.7028 12.8489H12.1282H3.55361Z" fill="#6B6A6A"/>
</svg>
