<svg width="20" height="20" viewBox="0 0 40 40" fill="none" xmlns="http://www.w3.org/2000/svg">
<path id="Vector" d="M38.9091 15.6007L22.2411 0.848407C21.6289 0.302637 20.8289 -5.48049e-05 19.9987 7.44289e-09C19.1686 5.48198e-05 18.3686 0.302852 17.7565 0.848703L1.09132 15.6006C0.747978 15.905 0.47361 16.2758 0.28574 16.6892C0.0978708 17.1026 0.000628756 17.5497 0.000223604 18.0018V36.6805C-0.00933497 37.4961 0.287853 38.2868 0.835773 38.9038C1.14792 39.2492 1.5323 39.5257 1.96315 39.7147C2.39401 39.9037 2.86138 40.0009 3.33396 39.9997H13.3262C13.7682 39.9997 14.1921 39.8288 14.5047 39.5245C14.8172 39.2202 14.9928 38.8075 14.9928 38.3772V28.6403C14.9928 28.21 15.1684 27.7973 15.481 27.493C15.7935 27.1887 16.2174 27.0178 16.6595 27.0178H23.3261C23.7681 27.0178 24.192 27.1887 24.5046 27.493C24.8172 27.7973 24.9928 28.21 24.9928 28.6403V38.3772C24.9928 38.8075 25.1684 39.2202 25.4809 39.5245C25.7935 39.8288 26.2174 39.9997 26.6594 39.9997H36.6713C37.2189 40.0067 37.7592 39.8771 38.2409 39.6233C38.7725 39.344 39.2166 38.9299 39.5263 38.4249C39.836 37.9199 39.9996 37.3428 40 36.7546V18.0019C39.9996 17.5498 39.9023 17.1028 39.7145 16.6894C39.5267 16.2759 39.2524 15.9052 38.9091 15.6007Z" fill="black"/>
</svg>
