<svg width="20" height="20" viewBox="0 0 44 44" fill="none" xmlns="http://www.w3.org/2000/svg">
<path id="Vector" d="M27.4532 40.2325V29.636C27.4532 29.1676 27.2617 28.7184 26.9207 28.3872C26.5797 28.056 26.1172 27.87 25.635 27.87H18.3623C17.8801 27.87 17.4176 28.056 17.0767 28.3872C16.7357 28.7184 16.5441 29.1676 16.5441 29.636V40.2325C16.5441 40.7009 16.3526 41.1501 16.0117 41.4813C15.6707 41.8124 15.2083 41.9985 14.7262 41.9986L3.81841 42C3.57962 42 3.34317 41.9544 3.12255 41.8656C2.90193 41.7769 2.70147 41.6468 2.53261 41.4828C2.36376 41.3188 2.22981 41.1241 2.13842 40.9098C2.04704 40.6955 2 40.4659 2 40.2339V19.8227C2 19.5767 2.05293 19.3333 2.1554 19.1083C2.25786 18.8833 2.40761 18.6816 2.59503 18.516L20.7756 2.45938C21.1103 2.1638 21.5464 2.00001 21.9987 2C22.451 1.99999 22.8871 2.16375 23.2218 2.4593L41.4049 18.516C41.5923 18.6816 41.7421 18.8833 41.8446 19.1083C41.9471 19.3334 42 19.5767 42 19.8228V40.2339C42 40.4659 41.953 40.6956 41.8616 40.9098C41.7702 41.1241 41.6362 41.3188 41.4674 41.4828C41.2985 41.6468 41.0981 41.7769 40.8775 41.8656C40.6568 41.9544 40.4204 42 40.1816 42L29.2712 41.9986C28.789 41.9985 28.3266 41.8125 27.9857 41.4813C27.6447 41.1501 27.4532 40.7009 27.4532 40.2325Z" stroke="white" stroke-width="3" stroke-linecap="round" stroke-linejoin="round"/>
</svg>
