<svg width="20" height="20" viewBox="0 0 30 30" fill="none" xmlns="http://www.w3.org/2000/svg">
<g id="Many Line Graph">
<path id="Vector" d="M2.5 29V0H1.5V1H0V2H1.5V8H0V9H1.5V15H0V16H1.5V22H0V23H1.5V29.5C1.5 29.6326 1.55268 29.7598 1.64645 29.8536C1.74021 29.9473 1.86739 30 2 30H30V29H2.5Z" fill="#6B6A6A"/>
<path id="Vector_2" d="M7.08567 23.45L8.10017 24.8C8.15339 24.8711 8.22457 24.9267 8.3064 24.9612C8.38823 24.9956 8.47776 25.0077 8.56579 24.9961C8.65382 24.9845 8.73716 24.9496 8.80727 24.8951C8.87737 24.8406 8.9317 24.7685 8.96467 24.686L10.5147 20.8065L11.5392 23.197C11.5732 23.2764 11.6272 23.3457 11.696 23.398C11.7647 23.4503 11.8458 23.4839 11.9314 23.4956C12.0171 23.5072 12.1042 23.4965 12.1844 23.4644C12.2647 23.4323 12.3352 23.38 12.3892 23.3125L13.9012 21.4225L15.0512 23.7225C15.0956 23.8084 15.1635 23.88 15.2469 23.9288C15.3304 23.9777 15.426 24.0019 15.5227 23.9985C15.6196 23.9939 15.7131 23.9612 15.7918 23.9044C15.8704 23.8476 15.9308 23.7691 15.9657 23.6785L20.4657 11.9785L21.5252 15.1565C21.5536 15.2418 21.6045 15.3178 21.6725 15.3766C21.7405 15.4354 21.8231 15.4747 21.9115 15.4906C22 15.5064 22.0911 15.498 22.1753 15.4664C22.2594 15.4349 22.3335 15.3812 22.3897 15.311L23.8762 13.4525L25.5422 17.2025C25.5853 17.2994 25.6582 17.3801 25.7502 17.4329C25.8422 17.4857 25.9486 17.5078 26.054 17.4961C26.1595 17.4844 26.2585 17.4395 26.3367 17.3679C26.4149 17.2962 26.4683 17.2015 26.4892 17.0975L27.9892 9.59752L27.0102 9.40002L25.8187 15.3595L24.4572 12.297C24.4225 12.218 24.368 12.1493 24.299 12.0976C24.2299 12.0459 24.1487 12.0129 24.0631 12.0019C23.9776 11.9909 23.8906 12.0022 23.8107 12.0347C23.7308 12.0672 23.6607 12.1199 23.6072 12.1875L22.1837 13.97L20.9742 10.342C20.9416 10.2443 20.8797 10.1589 20.7968 10.0977C20.7139 10.0365 20.6142 10.0024 20.5112 10C20.4078 9.99589 20.3058 10.0247 20.2199 10.0823C20.134 10.1399 20.0686 10.2233 20.0332 10.3205L15.4407 22.2625L14.4502 20.2765C14.4127 20.2014 14.3569 20.1369 14.2879 20.089C14.219 20.0411 14.139 20.0114 14.0555 20.0025C13.9721 19.9936 13.8877 20.0059 13.8102 20.0383C13.7327 20.0706 13.6646 20.1219 13.6122 20.1875L12.1337 22.0375L10.9622 19.3045C10.9195 19.2158 10.8533 19.1405 10.7708 19.0868C10.6882 19.0331 10.5926 19.0031 10.4942 19C10.3953 19.0011 10.2989 19.0316 10.2173 19.0875C10.1357 19.1434 10.0725 19.2222 10.0357 19.314L8.36617 23.4885L7.40017 22.2C7.34914 22.1312 7.28128 22.0766 7.2031 22.0416C7.12492 22.0065 7.03905 21.9922 6.95371 21.9998C6.86838 22.0075 6.78645 22.037 6.71578 22.0854C6.64512 22.1339 6.58809 22.1997 6.55017 22.2765L4.55017 26.2765L5.44517 26.7235L7.08567 23.45Z" fill="#6B6A6A"/>
<path id="Vector_3" d="M6.49976 2H5.49976V3H6.49976V2Z" fill="#6B6A6A"/>
<path id="Vector_4" d="M13.5 2H7.5V3H13.5V2Z" fill="#6B6A6A"/>
<path id="Vector_5" d="M13.4998 4H5.49976V5H13.4998V4Z" fill="#6B6A6A"/>
<path id="Vector_6" d="M13.4998 6H5.49976V7H13.4998V6Z" fill="#6B6A6A"/>
</g>
</svg>
