<svg width="20" height="20" viewBox="0 0 30 30" fill="none" xmlns="http://www.w3.org/2000/svg">
<path d="M29.3297 30H0.670312C0.3 30 0 29.6876 0 29.302V0.698015C0 0.312398 0.3 0 0.670312 0H29.325C29.7 0 30 0.312398 30 0.698015V29.302C30 29.6876 29.7 30 29.3297 30ZM1.34531 28.5991H28.6594V1.40091H1.34531V28.5991Z" fill="#6B6A6A"/>
<path d="M27.3141 7.60005H2.68596C2.31565 7.60005 2.01565 7.28765 2.01565 6.90203C2.01565 6.51641 2.31565 6.20402 2.68596 6.20402H27.3094C27.6797 6.20402 27.9797 6.51641 27.9797 6.90203C27.9797 7.28765 27.6844 7.60005 27.3141 7.60005Z" fill="#6B6A6A"/>
<path d="M9.32346 27.8718C8.95315 27.8718 8.65315 27.5594 8.65315 27.1738V6.90206C8.65315 6.51644 8.95315 6.20404 9.32346 6.20404C9.69377 6.20404 9.99377 6.51644 9.99377 6.90206V27.1738C9.99846 27.5594 9.69377 27.8718 9.32346 27.8718ZM10.125 5.42793H2.68596C2.31565 5.42793 2.01565 5.11553 2.01565 4.72991C2.01565 4.34429 2.31565 4.0319 2.68596 4.0319H10.125C10.4953 4.0319 10.7953 4.34429 10.7953 4.72991C10.7953 5.11553 10.4953 5.42793 10.125 5.42793Z" fill="#6B6A6A"/>
<path d="M7.42032 10.6704H3.4922C3.12188 10.6704 2.82188 10.358 2.82188 9.97234C2.82188 9.58672 3.12188 9.27433 3.4922 9.27433H7.42032C7.79063 9.27433 8.09063 9.58672 8.09063 9.97234C8.09063 10.358 7.79063 10.6704 7.42032 10.6704ZM7.42032 15.083H3.4922C3.12188 15.083 2.82188 14.7706 2.82188 14.385C2.82188 13.9993 3.12188 13.687 3.4922 13.687H7.42032C7.79063 13.687 8.09063 13.9993 8.09063 14.385C8.09063 14.7706 7.79063 15.083 7.42032 15.083ZM7.42032 19.4956H3.4922C3.12188 19.4956 2.82188 19.1832 2.82188 18.7976C2.82188 18.412 3.12188 18.0996 3.4922 18.0996H7.42032C7.79063 18.0996 8.09063 18.412 8.09063 18.7976C8.09063 19.1832 7.79063 19.4956 7.42032 19.4956ZM7.42032 23.9082H3.4922C3.12188 23.9082 2.82188 23.5958 2.82188 23.2102C2.82188 22.8246 3.12188 22.5122 3.4922 22.5122H7.42032C7.79063 22.5122 8.09063 22.8246 8.09063 23.2102C8.09063 23.5958 7.79063 23.9082 7.42032 23.9082Z" fill="#6B6A6A"/>
<path d="M15 10.6704H11.0718C10.7015 10.6704 10.4015 10.358 10.4015 9.97234C10.4015 9.58672 10.7015 9.27433 11.0718 9.27433H15C15.3703 9.27433 15.6703 9.58672 15.6703 9.97234C15.6703 10.358 15.3703 10.6704 15 10.6704ZM15 17.2893H11.0718C10.7015 17.2893 10.4015 16.9769 10.4015 16.5913C10.4015 16.2057 10.7015 15.8933 11.0718 15.8933H15C15.3703 15.8933 15.6703 16.2057 15.6703 16.5913C15.6703 16.9769 15.3703 17.2893 15 17.2893ZM15 23.9082H11.0718C10.7015 23.9082 10.4015 23.5958 10.4015 23.2102C10.4015 22.8246 10.7015 22.5122 11.0718 22.5122H15C15.3703 22.5122 15.6703 22.8246 15.6703 23.2102C15.6703 23.5958 15.3703 23.9082 15 23.9082Z" fill="#6B6A6A"/>
<path d="M26.9485 13.9701H16.7532C16.3828 13.9701 16.0828 13.6577 16.0828 13.2721V9.26947C16.0828 8.88386 16.3828 8.57146 16.7532 8.57146H26.9485C27.3188 8.57146 27.6188 8.88386 27.6188 9.26947V13.2721C27.6188 13.6577 27.3188 13.9701 26.9485 13.9701ZM17.4282 12.5692H26.2782V9.96749H17.4282V12.5692Z" fill="#6B6A6A"/>
<path d="M26.9485 20.5304H16.7532C16.3828 20.5304 16.0828 20.218 16.0828 19.8324V15.8298C16.0828 15.4442 16.3828 15.1318 16.7532 15.1318H26.9485C27.3188 15.1318 27.6188 15.4442 27.6188 15.8298V19.8324C27.6188 20.218 27.3188 20.5304 26.9485 20.5304ZM17.4282 19.1295H26.2782V16.5278H17.4282V19.1295Z" fill="#6B6A6A"/>
<path d="M26.9485 27.0908H16.7532C16.3828 27.0908 16.0828 26.7784 16.0828 26.3927V22.3901C16.0828 22.0045 16.3828 21.6921 16.7532 21.6921H26.9485C27.3188 21.6921 27.6188 22.0045 27.6188 22.3901V26.3927C27.6188 26.7784 27.3188 27.0908 26.9485 27.0908ZM17.4282 25.6899H26.2782V23.0882H17.4282V25.6899Z" fill="#6B6A6A"/>
</svg>
