<svg width="20" height="20" viewBox="0 0 30 30" fill="none" xmlns="http://www.w3.org/2000/svg">
<path id="57  Write, Basic, Essential, Pencil" d="M24.347 20.7692H26.4641V26.5385C26.4641 27.4565 26.1296 28.337 25.534 28.9861C24.9384 29.6353 24.1307 30 23.2884 30H3.1757C2.33345 30 1.5257 29.6353 0.93014 28.9861C0.334582 28.337 0 27.4565 0 26.5385V3.46154C0 2.54348 0.334582 1.66303 0.93014 1.01386C1.5257 0.364697 2.33345 0 3.1757 0H23.2884C24.1307 0 24.9384 0.364697 25.534 1.01386C26.1296 1.66303 26.4641 2.54348 26.4641 3.46154V4.78846H24.347V3.46154C24.347 3.15552 24.2355 2.86203 24.037 2.64565C23.8384 2.42926 23.5692 2.30769 23.2884 2.30769H3.1757C2.89495 2.30769 2.6257 2.42926 2.42718 2.64565C2.22866 2.86203 2.11713 3.15552 2.11713 3.46154V26.5385C2.11713 26.8445 2.22866 27.138 2.42718 27.3544C2.6257 27.5707 2.89495 27.6923 3.1757 27.6923H23.2884C23.5692 27.6923 23.8384 27.5707 24.037 27.3544C24.2355 27.138 24.347 26.8445 24.347 26.5385V20.7692ZM29.9998 10.5692C30.0008 11.0256 29.919 11.4777 29.7591 11.8995C29.5993 12.3213 29.3645 12.7044 29.0682 13.0269L27.3851 14.85L19.3718 23.5962C19.2082 23.7724 18.9964 23.8859 18.7684 23.9192L15.2751 24.4731H15.1163C14.8371 24.4687 14.5708 24.3443 14.3753 24.1269C14.2575 24.0009 14.1684 23.8465 14.1151 23.6762C14.0618 23.5059 14.0458 23.3244 14.0683 23.1462L14.5765 19.3385C14.6071 19.09 14.7111 18.8591 14.8728 18.6808L22.8968 9.94615L24.5693 8.07692C25.1769 7.44961 25.9819 7.09998 26.8188 7.09998C27.6556 7.09998 28.4607 7.44961 29.0682 8.07692C29.3683 8.40352 29.6053 8.79231 29.7653 9.22036C29.9253 9.64841 30.005 10.1071 29.9998 10.5692ZM25.1409 14.0308L23.6484 12.4038L16.6195 20.0538L16.3654 21.9231L18.1226 21.6462L25.1409 14.0308ZM27.8826 10.5692C27.8786 10.2649 27.7645 9.97457 27.5651 9.76154C27.3667 9.54663 27.0984 9.42601 26.8188 9.42601C26.5391 9.42601 26.2708 9.54663 26.0725 9.76154L25.1409 10.7769L26.6335 12.4038L27.5651 11.3885C27.6651 11.2816 27.7446 11.1542 27.7992 11.0135C27.8537 10.8729 27.882 10.7219 27.8826 10.5692ZM12.7028 24.2308V21.9231H5.29283V24.2308H12.7028Z" fill="#6B6A6A"/>
</svg>
