<svg width="20" height="20" viewBox="0 0 30 30" fill="none" xmlns="http://www.w3.org/2000/svg">
<path d="M8.57132 30.0001H3.21424C2.36208 29.9991 1.5451 29.6601 0.942527 29.0575C0.339954 28.4549 0.000992458 27.6378 0 26.7856V15.5348C0.000992458 14.6826 0.339954 13.8655 0.942527 13.2629C1.5451 12.6603 2.36208 12.3213 3.21424 12.3203H11.7856C12.6377 12.3213 13.4547 12.6603 14.0573 13.2629C14.6599 13.8655 14.9988 14.6826 14.9998 15.5348V23.5711C14.9998 23.7132 14.9433 23.8494 14.8428 23.9499L8.95006 29.8431C8.84962 29.9436 8.71338 30.0001 8.57132 30.0001ZM3.21424 13.3918C2.6461 13.3924 2.1014 13.6183 1.69966 14.0201C1.29793 14.4219 1.07198 14.9666 1.07141 15.5348V26.7856C1.07198 27.3538 1.29793 27.8985 1.69966 28.3003C2.1014 28.7021 2.6461 28.928 3.21424 28.9286H8.34954L13.9284 23.3493V15.5348C13.9278 14.9666 13.7019 14.4219 13.3001 14.0201C12.8984 13.6183 12.3537 13.3924 11.7856 13.3918H3.21424Z" fill="#6B6A6A"/>
<path d="M8.57156 30C8.42948 30 8.29322 29.9436 8.19275 29.8431C8.09229 29.7426 8.03585 29.6064 8.03585 29.4643V26.2498C8.03684 25.3975 8.3758 24.5805 8.97838 23.9779C9.58095 23.3753 10.3979 23.0363 11.2501 23.0353H14.4643C14.5703 23.0353 14.6738 23.0667 14.7619 23.1256C14.85 23.1845 14.9186 23.2681 14.9592 23.366C14.9997 23.4639 15.0103 23.5716 14.9896 23.6755C14.969 23.7794 14.918 23.8749 14.8431 23.9498L8.9503 29.8431C8.84986 29.9435 8.71362 30 8.57156 30ZM11.2501 24.1068C10.682 24.1073 10.1372 24.3333 9.73551 24.7351C9.33378 25.1368 9.10783 25.6816 9.10726 26.2498V28.171L13.1711 24.1068H11.2501ZM5.08946 19.8208C4.50672 19.8208 3.93706 19.6479 3.45253 19.3242C2.968 19.0004 2.59035 18.5402 2.36735 18.0018C2.14434 17.4633 2.08599 16.8709 2.19968 16.2993C2.31337 15.7277 2.59399 15.2026 3.00605 14.7905C3.41811 14.3784 3.9431 14.0978 4.51465 13.9841C5.08619 13.8704 5.67861 13.9288 6.21699 14.1518C6.75538 14.3748 7.21554 14.7525 7.53929 15.2371C7.86305 15.7216 8.03585 16.2913 8.03585 16.8741C8.03486 17.6553 7.72412 18.4042 7.17177 18.9566C6.61943 19.509 5.87058 19.8198 5.08946 19.8208ZM5.08946 14.999C4.71862 14.999 4.35612 15.109 4.04778 15.315C3.73944 15.5211 3.49912 15.8139 3.35721 16.1565C3.21529 16.4992 3.17816 16.8762 3.25051 17.2399C3.32286 17.6037 3.50143 17.9378 3.76365 18.2C4.02587 18.4623 4.35996 18.6409 4.72367 18.7132C5.08738 18.7856 5.46437 18.7484 5.80698 18.6065C6.14959 18.4646 6.44242 18.2243 6.64844 17.9159C6.85447 17.6075 6.96443 17.245 6.96443 16.8741C6.96387 16.377 6.76614 15.9004 6.41464 15.5488C6.06314 15.1973 5.58656 14.9996 5.08946 14.999Z" fill="#6B6A6A"/>
<path d="M5.35731 18.2135C5.28696 18.2135 5.2173 18.1996 5.15231 18.1727C5.08732 18.1458 5.02828 18.1063 4.97857 18.0565L3.90715 16.985C3.80957 16.8839 3.75557 16.7486 3.75679 16.6081C3.75801 16.4677 3.81435 16.3333 3.91368 16.234C4.013 16.1346 4.14736 16.0783 4.28783 16.0771C4.42829 16.0758 4.56361 16.1298 4.66464 16.2274L5.32142 16.8843L7.62389 14.1198C7.71489 14.0105 7.84557 13.9419 7.98717 13.929C8.05729 13.9226 8.12798 13.9301 8.1952 13.951C8.26243 13.9719 8.32487 14.0059 8.37897 14.0509C8.43307 14.096 8.47776 14.1513 8.5105 14.2136C8.54324 14.276 8.56338 14.3441 8.56977 14.4143C8.57616 14.4844 8.56868 14.5551 8.54776 14.6223C8.52683 14.6895 8.49287 14.752 8.44781 14.8061L5.76927 18.0206C5.72152 18.0778 5.66237 18.1245 5.59559 18.1576C5.52882 18.1907 5.45588 18.2096 5.38142 18.2129L5.35731 18.2135ZM11.7858 15.5347H9.64297C9.50089 15.5347 9.36463 15.4783 9.26417 15.3778C9.1637 15.2773 9.10726 15.141 9.10726 14.999C9.10726 14.8569 9.1637 14.7206 9.26417 14.6201C9.36463 14.5197 9.50089 14.4632 9.64297 14.4632H11.7858C11.9279 14.4632 12.0641 14.5197 12.1646 14.6201C12.2651 14.7206 12.3215 14.8569 12.3215 14.999C12.3215 15.141 12.2651 15.2773 12.1646 15.3778C12.0641 15.4783 11.9279 15.5347 11.7858 15.5347ZM12.3215 17.142H9.10726C8.96519 17.142 8.82893 17.0855 8.72846 16.985C8.628 16.8846 8.57156 16.7483 8.57156 16.6062C8.57156 16.4641 8.628 16.3279 8.72846 16.2274C8.82893 16.1269 8.96519 16.0705 9.10726 16.0705H12.3215C12.4636 16.0705 12.5998 16.1269 12.7003 16.2274C12.8008 16.3279 12.8572 16.4641 12.8572 16.6062C12.8572 16.7483 12.8008 16.8846 12.7003 16.985C12.5998 17.0855 12.4636 17.142 12.3215 17.142ZM5.08946 26.7855C4.50672 26.7855 3.93706 26.6127 3.45253 26.2889C2.968 25.9651 2.59035 25.5049 2.36735 24.9665C2.14434 24.4281 2.08599 23.8356 2.19968 23.264C2.31337 22.6924 2.59399 22.1674 3.00605 21.7553C3.41811 21.3432 3.9431 21.0625 4.51465 20.9488C5.08619 20.8351 5.67861 20.8935 6.21699 21.1165C6.75538 21.3395 7.21554 21.7172 7.53929 22.2018C7.86305 22.6864 8.03585 23.2561 8.03585 23.8389C8.03486 24.6201 7.72412 25.369 7.17178 25.9213C6.61943 26.4737 5.87059 26.7845 5.08946 26.7855ZM5.08946 21.9637C4.71862 21.9637 4.35612 22.0737 4.04778 22.2797C3.73944 22.4858 3.49912 22.7786 3.35721 23.1213C3.21529 23.4639 3.17816 23.8409 3.25051 24.2047C3.32286 24.5684 3.50143 24.9025 3.76365 25.1648C4.02587 25.427 4.35996 25.6056 4.72367 25.678C5.08738 25.7503 5.46437 25.7132 5.80698 25.5713C6.14959 25.4293 6.44242 25.189 6.64844 24.8806C6.85447 24.5723 6.96443 24.2097 6.96443 23.8389C6.96387 23.3417 6.76614 22.8651 6.41464 22.5136C6.06314 22.162 5.58656 21.9643 5.08946 21.9637ZM11.7858 22.4995H9.64297C9.50089 22.4995 9.36463 22.443 9.26417 22.3426C9.1637 22.2421 9.10726 22.1058 9.10726 21.9637C9.10726 21.8216 9.1637 21.6854 9.26417 21.5849C9.36463 21.4844 9.50089 21.428 9.64297 21.428H11.7858C11.9279 21.428 12.0641 21.4844 12.1646 21.5849C12.2651 21.6854 12.3215 21.8216 12.3215 21.9637C12.3215 22.1058 12.2651 22.2421 12.1646 22.3426C12.0641 22.443 11.9279 22.4995 11.7858 22.4995Z" fill="#6B6A6A"/>
<path d="M18.75 22.4994C17.995 22.4989 17.2418 22.4236 16.5016 22.2744C16.3657 22.2431 16.2474 22.16 16.1718 22.0428C16.0962 21.9256 16.0693 21.7835 16.0968 21.6468C16.1242 21.51 16.204 21.3894 16.319 21.3105C16.434 21.2316 16.5753 21.2007 16.7127 21.2243C17.3834 21.3595 18.0658 21.4277 18.75 21.4279C20.7416 21.4286 22.6895 20.8449 24.3527 19.7492C26.0158 18.6536 27.3209 17.094 28.1065 15.2638C28.8921 13.4336 29.1235 11.4131 28.7721 9.45261C28.4207 7.49215 27.5019 5.67785 26.1296 4.23445C24.7573 2.79106 22.9918 1.782 21.0516 1.33226C19.1115 0.882529 17.0821 1.01188 15.2148 1.7043C13.3475 2.39672 11.7243 3.62177 10.5463 5.22772C9.36833 6.83366 8.68732 8.74993 8.58764 10.7391C8.5784 10.8804 8.51459 11.0124 8.4097 11.1074C8.30482 11.2024 8.1671 11.2529 8.02568 11.2481C7.9554 11.2447 7.88648 11.2274 7.82286 11.1974C7.75925 11.1673 7.70218 11.125 7.65492 11.0728C7.60766 11.0207 7.57113 10.9597 7.54742 10.8935C7.52372 10.8272 7.5133 10.7569 7.51676 10.6866C7.62692 8.48834 8.37948 6.37064 9.68123 4.59587C10.983 2.82109 12.7767 1.4672 14.8403 0.7019C16.9039 -0.0633995 19.1466 -0.206487 21.2906 0.290361C23.4347 0.787209 25.386 1.90216 26.9027 3.49712C28.4194 5.09208 29.4349 7.09696 29.8235 9.26345C30.2121 11.4299 29.9567 13.6628 29.0888 15.6856C28.221 17.7083 26.7789 19.432 24.9412 20.6431C23.1035 21.8543 20.9509 22.4997 18.75 22.4994Z" fill="#6B6A6A"/>
<path d="M18.7497 20.3564C17.9818 20.3576 17.2169 20.2619 16.473 20.0714C16.4035 20.0551 16.338 20.025 16.2804 19.9831C16.2227 19.9411 16.174 19.888 16.1371 19.827C16.1002 19.7659 16.0759 19.6981 16.0655 19.6275C16.0552 19.5569 16.0591 19.485 16.0769 19.4159C16.0947 19.3468 16.1262 19.282 16.1694 19.2253C16.2126 19.1685 16.2667 19.121 16.3286 19.0854C16.3904 19.0499 16.4587 19.027 16.5295 19.0182C16.6003 19.0094 16.6722 19.0149 16.7408 19.0342C18.343 19.4481 20.0339 19.3573 21.5826 18.7743C23.1313 18.1913 24.4623 17.1445 25.3939 15.7768C26.3255 14.409 26.8123 12.7871 26.7879 11.1324C26.7634 9.47762 26.2288 7.87078 25.2572 6.5312C24.2855 5.19163 22.9241 4.18462 21.3589 3.64767C19.7936 3.11072 18.1008 3.07001 16.5116 3.53109C14.9223 3.99216 13.5141 4.93256 12.4792 6.22387C11.4443 7.51518 10.8331 9.09448 10.7291 10.7461C10.7186 10.8867 10.6532 11.0174 10.547 11.1101C10.4408 11.2027 10.3023 11.2498 10.1617 11.241C10.021 11.2323 9.88945 11.1685 9.79552 11.0634C9.70159 10.9583 9.65284 10.8205 9.65984 10.6797C9.77085 8.90607 10.3983 7.20368 11.4647 5.78226C12.5312 4.36085 13.9902 3.28251 15.662 2.68011C17.3337 2.07771 19.1451 1.97758 20.8731 2.39204C22.601 2.8065 24.1699 3.71745 25.3866 5.01265C26.6032 6.30785 27.4144 7.93071 27.7202 9.68128C28.026 11.4319 27.8131 13.2336 27.1076 14.8647C26.4021 16.4957 25.2349 17.8847 23.7498 18.8605C22.2647 19.8363 20.5267 20.3563 18.7497 20.3564Z" fill="#6B6A6A"/>
<path d="M18.7497 12.8559C18.4318 12.8559 18.1211 12.7616 17.8568 12.585C17.5925 12.4084 17.3866 12.1574 17.2649 11.8637C17.1433 11.57 17.1114 11.2468 17.1735 10.9351C17.2355 10.6233 17.3885 10.3369 17.6133 10.1121C17.8381 9.88733 18.1244 9.73426 18.4362 9.67224C18.7479 9.61022 19.0711 9.64205 19.3647 9.7637C19.6584 9.88535 19.9094 10.0914 20.086 10.3557C20.2626 10.62 20.3568 10.9307 20.3568 11.2486C20.3564 11.6748 20.1869 12.0833 19.8856 12.3846C19.5843 12.686 19.1758 12.8554 18.7497 12.8559ZM18.7497 10.7129C18.6437 10.7129 18.5402 10.7443 18.4521 10.8032C18.364 10.862 18.2953 10.9457 18.2548 11.0436C18.2142 11.1415 18.2036 11.2492 18.2243 11.3531C18.245 11.4571 18.296 11.5525 18.3709 11.6274C18.4458 11.7024 18.5413 11.7534 18.6452 11.7741C18.7491 11.7947 18.8568 11.7841 18.9547 11.7436C19.0526 11.703 19.1363 11.6344 19.1951 11.5463C19.254 11.4582 19.2854 11.3546 19.2854 11.2486C19.2853 11.1066 19.2288 10.9704 19.1283 10.8699C19.0279 10.7695 18.8917 10.713 18.7497 10.7129Z" fill="#6B6A6A"/>
<path d="M17.9923 11.027C17.922 11.0271 17.8523 11.0132 17.7873 10.9863C17.7223 10.9593 17.6633 10.9198 17.6136 10.87L16.0986 9.35437C16.001 9.25332 15.947 9.11799 15.9483 8.97752C15.9495 8.83705 16.0058 8.70267 16.1051 8.60334C16.2045 8.50401 16.3388 8.44766 16.4793 8.44644C16.6198 8.44522 16.7551 8.49922 16.8561 8.59681L18.3711 10.1125C18.446 10.1874 18.497 10.2828 18.5177 10.3867C18.5383 10.4907 18.5277 10.5984 18.4872 10.6962C18.4466 10.7941 18.378 10.8778 18.2899 10.9367C18.2018 10.9955 18.0983 11.027 17.9923 11.027ZM19.5073 11.027C19.4014 11.027 19.2978 10.9955 19.2098 10.9367C19.1217 10.8778 19.053 10.7941 19.0125 10.6962C18.972 10.5984 18.9614 10.4907 18.982 10.3867C19.0027 10.2828 19.0537 10.1874 19.1286 10.1125L22.5378 6.70293C22.6389 6.60534 22.7742 6.55134 22.9146 6.55256C23.0551 6.55378 23.1895 6.61013 23.2888 6.70946C23.3881 6.80879 23.4445 6.94316 23.4457 7.08364C23.4469 7.22411 23.3929 7.35944 23.2953 7.46049L19.8861 10.87C19.8364 10.9198 19.7774 10.9593 19.7124 10.9863C19.6474 11.0132 19.5777 11.0271 19.5073 11.027ZM18.7498 4.28401C18.6078 4.28401 18.4715 4.22757 18.371 4.12709C18.2706 4.02662 18.2141 3.89035 18.2141 3.74826V3.21251C18.2141 3.07042 18.2706 2.93415 18.371 2.83368C18.4715 2.7332 18.6078 2.67676 18.7498 2.67676C18.8919 2.67676 19.0282 2.7332 19.1286 2.83368C19.2291 2.93415 19.2855 3.07042 19.2855 3.21251V3.74826C19.2855 3.89035 19.2291 4.02662 19.1286 4.12709C19.0282 4.22757 18.8919 4.28401 18.7498 4.28401ZM18.7498 19.8208C18.6078 19.8208 18.4715 19.7644 18.371 19.6639C18.2706 19.5634 18.2141 19.4272 18.2141 19.2851V18.7493C18.2141 18.6072 18.2706 18.4709 18.371 18.3705C18.4715 18.27 18.6078 18.2136 18.7498 18.2136C18.8919 18.2136 19.0282 18.27 19.1286 18.3705C19.2291 18.4709 19.2855 18.6072 19.2855 18.7493V19.2851C19.2855 19.4272 19.2291 19.5634 19.1286 19.6639C19.0282 19.7644 18.8919 19.8208 18.7498 19.8208ZM26.7854 11.7845H26.2497C26.1077 11.7845 25.9714 11.7281 25.8709 11.6276C25.7705 11.5271 25.714 11.3909 25.714 11.2488C25.714 11.1067 25.7705 10.9704 25.8709 10.87C25.9714 10.7695 26.1077 10.713 26.2497 10.713H26.7854C26.9275 10.713 27.0638 10.7695 27.1643 10.87C27.2647 10.9704 27.3212 11.1067 27.3212 11.2488C27.3212 11.3909 27.2647 11.5271 27.1643 11.6276C27.0638 11.7281 26.9275 11.7845 26.7854 11.7845Z" fill="#6B6A6A"/>
</svg>
