<?xml version="1.0"?><svg xmlns="http://www.w3.org/2000/svg" width="168" height="168"><rect x="0" y="0" width="100%" height="100%" fill="rgb(253, 203, 110)" /><circle cx="14" cy="14" r="11.666666666667" fill="none" stroke="#ddd" style="opacity:0.054666666666667;stroke-width:4.6666666666667px;" /><circle cx="14" cy="14" r="5.8333333333333" fill="#ddd" fill-opacity="0.089333333333333" /><circle cx="42" cy="14" r="11.666666666667" fill="none" stroke="#222" style="opacity:0.098;stroke-width:4.6666666666667px;" /><circle cx="42" cy="14" r="5.8333333333333" fill="#222" fill-opacity="0.11533333333333" /><circle cx="70" cy="14" r="11.666666666667" fill="none" stroke="#ddd" style="opacity:0.037333333333333;stroke-width:4.6666666666667px;" /><circle cx="70" cy="14" r="5.8333333333333" fill="#ddd" fill-opacity="0.054666666666667" /><circle cx="98" cy="14" r="11.666666666667" fill="none" stroke="#222" style="opacity:0.098;stroke-width:4.6666666666667px;" /><circle cx="98" cy="14" r="5.8333333333333" fill="#222" fill-opacity="0.098" /><circle cx="126" cy="14" r="11.666666666667" fill="none" stroke="#222" style="opacity:0.080666666666667;stroke-width:4.6666666666667px;" /><circle cx="126" cy="14" r="5.8333333333333" fill="#ddd" fill-opacity="0.037333333333333" /><circle cx="154" cy="14" r="11.666666666667" fill="none" stroke="#ddd" style="opacity:0.14133333333333;stroke-width:4.6666666666667px;" /><circle cx="154" cy="14" r="5.8333333333333" fill="#222" fill-opacity="0.046" /><circle cx="14" cy="42" r="11.666666666667" fill="none" stroke="#222" style="opacity:0.046;stroke-width:4.6666666666667px;" /><circle cx="14" cy="42" r="5.8333333333333" fill="#222" fill-opacity="0.080666666666667" /><circle cx="42" cy="42" r="11.666666666667" fill="none" stroke="#222" style="opacity:0.046;stroke-width:4.6666666666667px;" /><circle cx="42" cy="42" r="5.8333333333333" fill="#ddd" fill-opacity="0.02" /><circle cx="70" cy="42" r="11.666666666667" fill="none" stroke="#222" style="opacity:0.028666666666667;stroke-width:4.6666666666667px;" /><circle cx="70" cy="42" r="5.8333333333333" fill="#222" fill-opacity="0.028666666666667" /><circle cx="98" cy="42" r="11.666666666667" fill="none" stroke="#222" style="opacity:0.063333333333333;stroke-width:4.6666666666667px;" /><circle cx="98" cy="42" r="5.8333333333333" fill="#222" fill-opacity="0.15" /><circle cx="126" cy="42" r="11.666666666667" fill="none" stroke="#222" style="opacity:0.080666666666667;stroke-width:4.6666666666667px;" /><circle cx="126" cy="42" r="5.8333333333333" fill="#222" fill-opacity="0.15" /><circle cx="154" cy="42" r="11.666666666667" fill="none" stroke="#222" style="opacity:0.15;stroke-width:4.6666666666667px;" /><circle cx="154" cy="42" r="5.8333333333333" fill="#ddd" fill-opacity="0.089333333333333" /><circle cx="14" cy="70" r="11.666666666667" fill="none" stroke="#ddd" style="opacity:0.054666666666667;stroke-width:4.6666666666667px;" /><circle cx="14" cy="70" r="5.8333333333333" fill="#ddd" fill-opacity="0.089333333333333" /><circle cx="42" cy="70" r="11.666666666667" fill="none" stroke="#222" style="opacity:0.15;stroke-width:4.6666666666667px;" /><circle cx="42" cy="70" r="5.8333333333333" fill="#222" fill-opacity="0.080666666666667" /><circle cx="70" cy="70" r="11.666666666667" fill="none" stroke="#ddd" style="opacity:0.037333333333333;stroke-width:4.6666666666667px;" /><circle cx="70" cy="70" r="5.8333333333333" fill="#222" fill-opacity="0.028666666666667" /><circle cx="98" cy="70" r="11.666666666667" fill="none" stroke="#ddd" style="opacity:0.10666666666667;stroke-width:4.6666666666667px;" /><circle cx="98" cy="70" r="5.8333333333333" fill="#222" fill-opacity="0.13266666666667" /><circle cx="126" cy="70" r="11.666666666667" fill="none" stroke="#222" style="opacity:0.098;stroke-width:4.6666666666667px;" /><circle cx="126" cy="70" r="5.8333333333333" fill="#ddd" fill-opacity="0.089333333333333" /><circle cx="154" cy="70" r="11.666666666667" fill="none" stroke="#222" style="opacity:0.080666666666667;stroke-width:4.6666666666667px;" /><circle cx="154" cy="70" r="5.8333333333333" fill="#ddd" fill-opacity="0.14133333333333" /><circle cx="14" cy="98" r="11.666666666667" fill="none" stroke="#ddd" style="opacity:0.10666666666667;stroke-width:4.6666666666667px;" /><circle cx="14" cy="98" r="5.8333333333333" fill="#222" fill-opacity="0.11533333333333" /><circle cx="42" cy="98" r="11.666666666667" fill="none" stroke="#ddd" style="opacity:0.072;stroke-width:4.6666666666667px;" /><circle cx="42" cy="98" r="5.8333333333333" fill="#ddd" fill-opacity="0.10666666666667" /><circle cx="70" cy="98" r="11.666666666667" fill="none" stroke="#ddd" style="opacity:0.10666666666667;stroke-width:4.6666666666667px;" /><circle cx="70" cy="98" r="5.8333333333333" fill="#ddd" fill-opacity="0.072" /><circle cx="98" cy="98" r="11.666666666667" fill="none" stroke="#222" style="opacity:0.11533333333333;stroke-width:4.6666666666667px;" /><circle cx="98" cy="98" r="5.8333333333333" fill="#ddd" fill-opacity="0.10666666666667" /><circle cx="126" cy="98" r="11.666666666667" fill="none" stroke="#ddd" style="opacity:0.14133333333333;stroke-width:4.6666666666667px;" /><circle cx="126" cy="98" r="5.8333333333333" fill="#222" fill-opacity="0.080666666666667" /><circle cx="154" cy="98" r="11.666666666667" fill="none" stroke="#ddd" style="opacity:0.089333333333333;stroke-width:4.6666666666667px;" /><circle cx="154" cy="98" r="5.8333333333333" fill="#222" fill-opacity="0.098" /><circle cx="14" cy="126" r="11.666666666667" fill="none" stroke="#222" style="opacity:0.13266666666667;stroke-width:4.6666666666667px;" /><circle cx="14" cy="126" r="5.8333333333333" fill="#ddd" fill-opacity="0.10666666666667" /><circle cx="42" cy="126" r="11.666666666667" fill="none" stroke="#222" style="opacity:0.028666666666667;stroke-width:4.6666666666667px;" /><circle cx="42" cy="126" r="5.8333333333333" fill="#ddd" fill-opacity="0.037333333333333" /><circle cx="70" cy="126" r="11.666666666667" fill="none" stroke="#222" style="opacity:0.080666666666667;stroke-width:4.6666666666667px;" /><circle cx="70" cy="126" r="5.8333333333333" fill="#222" fill-opacity="0.15" /><circle cx="98" cy="126" r="11.666666666667" fill="none" stroke="#ddd" style="opacity:0.089333333333333;stroke-width:4.6666666666667px;" /><circle cx="98" cy="126" r="5.8333333333333" fill="#ddd" fill-opacity="0.054666666666667" /><circle cx="126" cy="126" r="11.666666666667" fill="none" stroke="#ddd" style="opacity:0.089333333333333;stroke-width:4.6666666666667px;" /><circle cx="126" cy="126" r="5.8333333333333" fill="#222" fill-opacity="0.15" /><circle cx="154" cy="126" r="11.666666666667" fill="none" stroke="#222" style="opacity:0.15;stroke-width:4.6666666666667px;" /><circle cx="154" cy="126" r="5.8333333333333" fill="#222" fill-opacity="0.080666666666667" /><circle cx="14" cy="154" r="11.666666666667" fill="none" stroke="#222" style="opacity:0.15;stroke-width:4.6666666666667px;" /><circle cx="14" cy="154" r="5.8333333333333" fill="#222" fill-opacity="0.063333333333333" /><circle cx="42" cy="154" r="11.666666666667" fill="none" stroke="#222" style="opacity:0.028666666666667;stroke-width:4.6666666666667px;" /><circle cx="42" cy="154" r="5.8333333333333" fill="#222" fill-opacity="0.028666666666667" /><circle cx="70" cy="154" r="11.666666666667" fill="none" stroke="#ddd" style="opacity:0.02;stroke-width:4.6666666666667px;" /><circle cx="70" cy="154" r="5.8333333333333" fill="#222" fill-opacity="0.046" /><circle cx="98" cy="154" r="11.666666666667" fill="none" stroke="#222" style="opacity:0.080666666666667;stroke-width:4.6666666666667px;" /><circle cx="98" cy="154" r="5.8333333333333" fill="#222" fill-opacity="0.046" /><circle cx="126" cy="154" r="11.666666666667" fill="none" stroke="#222" style="opacity:0.046;stroke-width:4.6666666666667px;" /><circle cx="126" cy="154" r="5.8333333333333" fill="#ddd" fill-opacity="0.14133333333333" /><circle cx="154" cy="154" r="11.666666666667" fill="none" stroke="#ddd" style="opacity:0.037333333333333;stroke-width:4.6666666666667px;" /><circle cx="154" cy="154" r="5.8333333333333" fill="#222" fill-opacity="0.080666666666667" /></svg>