<?xml version="1.0"?><svg xmlns="http://www.w3.org/2000/svg" width="370" height="214"><rect x="0" y="0" width="100%" height="100%" fill="rgb(253, 121, 168)" /><polyline points="0, 0, 61.77647880329, 35.666666666667, 0, 71.333333333333, 0, 0" fill="#222" fill-opacity="0.13266666666667" stroke="#000" stroke-opacity="0.02" transform="translate(0, -35.666666666667) rotate(180, 30.888239401645, 35.666666666667)" /><polyline points="0, 0, 61.77647880329, 35.666666666667, 0, 71.333333333333, 0, 0" fill="#222" fill-opacity="0.13266666666667" stroke="#000" stroke-opacity="0.02" transform="translate(0, 178.33333333333) rotate(180, 30.888239401645, 35.666666666667)" /><polyline points="0, 0, 61.77647880329, 35.666666666667, 0, 71.333333333333, 0, 0" fill="#222" fill-opacity="0.13266666666667" stroke="#000" stroke-opacity="0.02" transform="translate(61.77647880329, -35.666666666667) rotate(0, 30.888239401645, 35.666666666667)" /><polyline points="0, 0, 61.77647880329, 35.666666666667, 0, 71.333333333333, 0, 0" fill="#222" fill-opacity="0.13266666666667" stroke="#000" stroke-opacity="0.02" transform="translate(61.77647880329, 178.33333333333) rotate(0, 30.888239401645, 35.666666666667)" /><polyline points="0, 0, 61.77647880329, 35.666666666667, 0, 71.333333333333, 0, 0" fill="#222" fill-opacity="0.046" stroke="#000" stroke-opacity="0.02" transform="translate(123.55295760658, -35.666666666667) rotate(180, 30.888239401645, 35.666666666667)" /><polyline points="0, 0, 61.77647880329, 35.666666666667, 0, 71.333333333333, 0, 0" fill="#222" fill-opacity="0.046" stroke="#000" stroke-opacity="0.02" transform="translate(123.55295760658, 178.33333333333) rotate(180, 30.888239401645, 35.666666666667)" /><polyline points="0, 0, 61.77647880329, 35.666666666667, 0, 71.333333333333, 0, 0" fill="#ddd" fill-opacity="0.072" stroke="#000" stroke-opacity="0.02" transform="translate(185.32943640987, -35.666666666667) rotate(0, 30.888239401645, 35.666666666667)" /><polyline points="0, 0, 61.77647880329, 35.666666666667, 0, 71.333333333333, 0, 0" fill="#ddd" fill-opacity="0.072" stroke="#000" stroke-opacity="0.02" transform="translate(185.32943640987, 178.33333333333) rotate(0, 30.888239401645, 35.666666666667)" /><polyline points="0, 0, 61.77647880329, 35.666666666667, 0, 71.333333333333, 0, 0" fill="#222" fill-opacity="0.098" stroke="#000" stroke-opacity="0.02" transform="translate(247.10591521316, -35.666666666667) rotate(180, 30.888239401645, 35.666666666667)" /><polyline points="0, 0, 61.77647880329, 35.666666666667, 0, 71.333333333333, 0, 0" fill="#222" fill-opacity="0.098" stroke="#000" stroke-opacity="0.02" transform="translate(247.10591521316, 178.33333333333) rotate(180, 30.888239401645, 35.666666666667)" /><polyline points="0, 0, 61.77647880329, 35.666666666667, 0, 71.333333333333, 0, 0" fill="#222" fill-opacity="0.15" stroke="#000" stroke-opacity="0.02" transform="translate(308.88239401645, -35.666666666667) rotate(0, 30.888239401645, 35.666666666667)" /><polyline points="0, 0, 61.77647880329, 35.666666666667, 0, 71.333333333333, 0, 0" fill="#222" fill-opacity="0.15" stroke="#000" stroke-opacity="0.02" transform="translate(308.88239401645, 178.33333333333) rotate(0, 30.888239401645, 35.666666666667)" /><polyline points="0, 0, 61.77647880329, 35.666666666667, 0, 71.333333333333, 0, 0" fill="#222" fill-opacity="0.028666666666667" stroke="#000" stroke-opacity="0.02" transform="translate(0, 0) rotate(0, 30.888239401645, 35.666666666667)" /><polyline points="0, 0, 61.77647880329, 35.666666666667, 0, 71.333333333333, 0, 0" fill="#222" fill-opacity="0.15" stroke="#000" stroke-opacity="0.02" transform="translate(61.77647880329, 0) rotate(180, 30.888239401645, 35.666666666667)" /><polyline points="0, 0, 61.77647880329, 35.666666666667, 0, 71.333333333333, 0, 0" fill="#ddd" fill-opacity="0.089333333333333" stroke="#000" stroke-opacity="0.02" transform="translate(123.55295760658, 0) rotate(0, 30.888239401645, 35.666666666667)" /><polyline points="0, 0, 61.77647880329, 35.666666666667, 0, 71.333333333333, 0, 0" fill="#ddd" fill-opacity="0.054666666666667" stroke="#000" stroke-opacity="0.02" transform="translate(185.32943640987, 0) rotate(180, 30.888239401645, 35.666666666667)" /><polyline points="0, 0, 61.77647880329, 35.666666666667, 0, 71.333333333333, 0, 0" fill="#222" fill-opacity="0.046" stroke="#000" stroke-opacity="0.02" transform="translate(247.10591521316, 0) rotate(0, 30.888239401645, 35.666666666667)" /><polyline points="0, 0, 61.77647880329, 35.666666666667, 0, 71.333333333333, 0, 0" fill="#ddd" fill-opacity="0.02" stroke="#000" stroke-opacity="0.02" transform="translate(308.88239401645, 0) rotate(180, 30.888239401645, 35.666666666667)" /><polyline points="0, 0, 61.77647880329, 35.666666666667, 0, 71.333333333333, 0, 0" fill="#222" fill-opacity="0.046" stroke="#000" stroke-opacity="0.02" transform="translate(0, 35.666666666667) rotate(180, 30.888239401645, 35.666666666667)" /><polyline points="0, 0, 61.77647880329, 35.666666666667, 0, 71.333333333333, 0, 0" fill="#ddd" fill-opacity="0.089333333333333" stroke="#000" stroke-opacity="0.02" transform="translate(61.77647880329, 35.666666666667) rotate(0, 30.888239401645, 35.666666666667)" /><polyline points="0, 0, 61.77647880329, 35.666666666667, 0, 71.333333333333, 0, 0" fill="#222" fill-opacity="0.098" stroke="#000" stroke-opacity="0.02" transform="translate(123.55295760658, 35.666666666667) rotate(180, 30.888239401645, 35.666666666667)" /><polyline points="0, 0, 61.77647880329, 35.666666666667, 0, 71.333333333333, 0, 0" fill="#ddd" fill-opacity="0.089333333333333" stroke="#000" stroke-opacity="0.02" transform="translate(185.32943640987, 35.666666666667) rotate(0, 30.888239401645, 35.666666666667)" /><polyline points="0, 0, 61.77647880329, 35.666666666667, 0, 71.333333333333, 0, 0" fill="#ddd" fill-opacity="0.089333333333333" stroke="#000" stroke-opacity="0.02" transform="translate(247.10591521316, 35.666666666667) rotate(180, 30.888239401645, 35.666666666667)" /><polyline points="0, 0, 61.77647880329, 35.666666666667, 0, 71.333333333333, 0, 0" fill="#ddd" fill-opacity="0.037333333333333" stroke="#000" stroke-opacity="0.02" transform="translate(308.88239401645, 35.666666666667) rotate(0, 30.888239401645, 35.666666666667)" /><polyline points="0, 0, 61.77647880329, 35.666666666667, 0, 71.333333333333, 0, 0" fill="#222" fill-opacity="0.11533333333333" stroke="#000" stroke-opacity="0.02" transform="translate(0, 71.333333333333) rotate(0, 30.888239401645, 35.666666666667)" /><polyline points="0, 0, 61.77647880329, 35.666666666667, 0, 71.333333333333, 0, 0" fill="#ddd" fill-opacity="0.089333333333333" stroke="#000" stroke-opacity="0.02" transform="translate(61.77647880329, 71.333333333333) rotate(180, 30.888239401645, 35.666666666667)" /><polyline points="0, 0, 61.77647880329, 35.666666666667, 0, 71.333333333333, 0, 0" fill="#222" fill-opacity="0.15" stroke="#000" stroke-opacity="0.02" transform="translate(123.55295760658, 71.333333333333) rotate(0, 30.888239401645, 35.666666666667)" /><polyline points="0, 0, 61.77647880329, 35.666666666667, 0, 71.333333333333, 0, 0" fill="#222" fill-opacity="0.13266666666667" stroke="#000" stroke-opacity="0.02" transform="translate(185.32943640987, 71.333333333333) rotate(180, 30.888239401645, 35.666666666667)" /><polyline points="0, 0, 61.77647880329, 35.666666666667, 0, 71.333333333333, 0, 0" fill="#222" fill-opacity="0.063333333333333" stroke="#000" stroke-opacity="0.02" transform="translate(247.10591521316, 71.333333333333) rotate(0, 30.888239401645, 35.666666666667)" /><polyline points="0, 0, 61.77647880329, 35.666666666667, 0, 71.333333333333, 0, 0" fill="#222" fill-opacity="0.098" stroke="#000" stroke-opacity="0.02" transform="translate(308.88239401645, 71.333333333333) rotate(180, 30.888239401645, 35.666666666667)" /><polyline points="0, 0, 61.77647880329, 35.666666666667, 0, 71.333333333333, 0, 0" fill="#ddd" fill-opacity="0.054666666666667" stroke="#000" stroke-opacity="0.02" transform="translate(0, 107) rotate(180, 30.888239401645, 35.666666666667)" /><polyline points="0, 0, 61.77647880329, 35.666666666667, 0, 71.333333333333, 0, 0" fill="#ddd" fill-opacity="0.089333333333333" stroke="#000" stroke-opacity="0.02" transform="translate(61.77647880329, 107) rotate(0, 30.888239401645, 35.666666666667)" /><polyline points="0, 0, 61.77647880329, 35.666666666667, 0, 71.333333333333, 0, 0" fill="#222" fill-opacity="0.046" stroke="#000" stroke-opacity="0.02" transform="translate(123.55295760658, 107) rotate(180, 30.888239401645, 35.666666666667)" /><polyline points="0, 0, 61.77647880329, 35.666666666667, 0, 71.333333333333, 0, 0" fill="#222" fill-opacity="0.063333333333333" stroke="#000" stroke-opacity="0.02" transform="translate(185.32943640987, 107) rotate(0, 30.888239401645, 35.666666666667)" /><polyline points="0, 0, 61.77647880329, 35.666666666667, 0, 71.333333333333, 0, 0" fill="#222" fill-opacity="0.11533333333333" stroke="#000" stroke-opacity="0.02" transform="translate(247.10591521316, 107) rotate(180, 30.888239401645, 35.666666666667)" /><polyline points="0, 0, 61.77647880329, 35.666666666667, 0, 71.333333333333, 0, 0" fill="#222" fill-opacity="0.15" stroke="#000" stroke-opacity="0.02" transform="translate(308.88239401645, 107) rotate(0, 30.888239401645, 35.666666666667)" /><polyline points="0, 0, 61.77647880329, 35.666666666667, 0, 71.333333333333, 0, 0" fill="#ddd" fill-opacity="0.089333333333333" stroke="#000" stroke-opacity="0.02" transform="translate(0, 142.66666666667) rotate(0, 30.888239401645, 35.666666666667)" /><polyline points="0, 0, 61.77647880329, 35.666666666667, 0, 71.333333333333, 0, 0" fill="#222" fill-opacity="0.13266666666667" stroke="#000" stroke-opacity="0.02" transform="translate(61.77647880329, 142.66666666667) rotate(180, 30.888239401645, 35.666666666667)" /><polyline points="0, 0, 61.77647880329, 35.666666666667, 0, 71.333333333333, 0, 0" fill="#ddd" fill-opacity="0.02" stroke="#000" stroke-opacity="0.02" transform="translate(123.55295760658, 142.66666666667) rotate(0, 30.888239401645, 35.666666666667)" /><polyline points="0, 0, 61.77647880329, 35.666666666667, 0, 71.333333333333, 0, 0" fill="#222" fill-opacity="0.098" stroke="#000" stroke-opacity="0.02" transform="translate(185.32943640987, 142.66666666667) rotate(180, 30.888239401645, 35.666666666667)" /><polyline points="0, 0, 61.77647880329, 35.666666666667, 0, 71.333333333333, 0, 0" fill="#ddd" fill-opacity="0.037333333333333" stroke="#000" stroke-opacity="0.02" transform="translate(247.10591521316, 142.66666666667) rotate(0, 30.888239401645, 35.666666666667)" /><polyline points="0, 0, 61.77647880329, 35.666666666667, 0, 71.333333333333, 0, 0" fill="#ddd" fill-opacity="0.072" stroke="#000" stroke-opacity="0.02" transform="translate(308.88239401645, 142.66666666667) rotate(180, 30.888239401645, 35.666666666667)" /></svg>