<svg width="20" height="20" viewBox="0 0 30 30" fill="none" xmlns="http://www.w3.org/2000/svg">
<path d="M8.27586 0C7.45278 0 6.6634 0.296316 6.08139 0.823762C5.49938 1.35121 5.17241 2.06658 5.17241 2.8125C5.17241 3.55842 5.49938 4.27379 6.08139 4.80124C6.6634 5.32868 7.45278 5.625 8.27586 5.625C9.09895 5.625 9.88832 5.32868 10.4703 4.80124C11.0523 4.27379 11.3793 3.55842 11.3793 2.8125C11.3793 2.06658 11.0523 1.35121 10.4703 0.823762C9.88832 0.296316 9.09895 0 8.27586 0ZM15 0.9375C14.8628 0.9375 14.7313 0.986886 14.6343 1.07479C14.5373 1.1627 14.4828 1.28193 14.4828 1.40625V5.83781C13.4379 6.23906 12.3134 6.5625 11.3793 6.5625H3.62069C1.62414 6.5625 0 8.04937 0 9.85875V16.4062C0 16.7792 0.163485 17.1369 0.45449 17.4006C0.745494 17.6643 1.14018 17.8125 1.55172 17.8125C1.96327 17.8125 2.35795 17.6643 2.64896 17.4006C2.93996 17.1369 3.10345 16.7792 3.10345 16.4062V9.85875C3.10345 9.6 3.33517 9.375 3.62069 9.375H4.13793V28.5938C4.13793 28.9667 4.30142 29.3244 4.59242 29.5881C4.88342 29.8518 5.27811 30 5.68965 30C6.1012 30 6.49589 29.8518 6.78689 29.5881C7.07789 29.3244 7.24138 28.9667 7.24138 28.5938V21.5625H9.31034V28.5938C9.31034 28.9667 9.47383 29.3244 9.76483 29.5881C10.0558 29.8518 10.4505 30 10.8621 30C11.2736 30 11.6683 29.8518 11.9593 29.5881C12.2503 29.3244 12.4138 28.9667 12.4138 28.5938V9.30187C13.1069 9.21469 13.8083 9.04969 14.4828 8.84625V12.6562C14.4828 12.7806 14.5373 12.8998 14.6343 12.9877C14.7313 13.0756 14.8628 13.125 15 13.125H29.4828C29.6199 13.125 29.7515 13.0756 29.8485 12.9877C29.9455 12.8998 30 12.7806 30 12.6562V1.40625C30 1.28193 29.9455 1.1627 29.8485 1.07479C29.7515 0.986886 29.6199 0.9375 29.4828 0.9375H15ZM15.5172 1.875H28.9655V12.1875H15.5172V8.49563C16.7627 8.02821 17.959 7.45964 19.0914 6.79688C19.2612 6.69469 19.4071 6.56319 19.5209 6.4099C19.6346 6.2566 19.7139 6.0845 19.7543 5.90342C19.7946 5.72235 19.7952 5.53585 19.756 5.35456C19.7168 5.17328 19.6386 5.00077 19.5259 4.84688C19.4131 4.69298 19.268 4.56072 19.0989 4.45765C18.9297 4.35458 18.7398 4.2827 18.54 4.24614C18.1365 4.1723 17.7171 4.24675 17.3741 4.45312C16.9976 4.68 16.321 5.04469 15.5172 5.40937V1.875ZM21.2069 2.8125C21.0697 2.8125 20.9382 2.86189 20.8412 2.94979C20.7441 3.0377 20.6897 3.15693 20.6897 3.28125C20.6897 3.40557 20.7441 3.5248 20.8412 3.61271C20.9382 3.70061 21.0697 3.75 21.2069 3.75H27.4138C27.551 3.75 27.6825 3.70061 27.7795 3.61271C27.8765 3.5248 27.931 3.40557 27.931 3.28125C27.931 3.15693 27.8765 3.0377 27.7795 2.94979C27.6825 2.86189 27.551 2.8125 27.4138 2.8125H21.2069ZM21.2069 4.6875C21.0697 4.6875 20.9382 4.73689 20.8412 4.82479C20.7441 4.9127 20.6897 5.03193 20.6897 5.15625C20.6897 5.28057 20.7441 5.3998 20.8412 5.48771C20.9382 5.57561 21.0697 5.625 21.2069 5.625H24.3103C24.4475 5.625 24.5791 5.57561 24.6761 5.48771C24.7731 5.3998 24.8276 5.28057 24.8276 5.15625C24.8276 5.03193 24.7731 4.9127 24.6761 4.82479C24.5791 4.73689 24.4475 4.6875 24.3103 4.6875H21.2069Z" fill="#6B6A6A"/>
</svg>
