<svg width="20" height="20" viewBox="0 0 30 30" fill="none" xmlns="http://www.w3.org/2000/svg">
<path d="M28.1287 21.8347C28.044 21.5943 27.882 21.3741 27.6575 21.1941C27.4331 21.0142 27.1533 20.8803 26.8439 20.8047L18.9132 18.7546V16.5845C18.9098 16.5574 18.9033 16.5306 18.8936 16.5045C19.0306 16.4045 19.1675 16.3045 19.3045 16.1945C21.9589 14.0144 23.1198 9.9942 22.9372 7.92412L22.9503 5.88403L15.4631 7.4741C15.1593 7.5341 14.8407 7.5341 14.5369 7.4741L7.04973 5.88403L7.06277 7.92412C6.88016 9.9942 8.04106 14.0144 10.6955 16.1945C10.8325 16.3045 10.9694 16.4045 11.1064 16.5045C11.0967 16.5306 11.0902 16.5574 11.0868 16.5845V18.7546L3.16264 20.7997C2.84466 20.8791 2.55847 21.0196 2.3313 21.2077C2.10413 21.3959 1.94352 21.6255 1.86477 21.8747L0.012528 29.405C-0.00628475 29.4774 -0.00388408 29.552 0.0195564 29.6236C0.0429968 29.6951 0.0868905 29.7618 0.148062 29.8187C0.209233 29.8757 0.286152 29.9215 0.373252 29.9528C0.460352 29.9842 0.555455 30.0003 0.65168 30H29.3483C29.4445 30.0003 29.5396 29.9842 29.6267 29.9528C29.7138 29.9215 29.7908 29.8757 29.8519 29.8187C29.9131 29.7618 29.957 29.6951 29.9804 29.6236C30.0039 29.552 30.0063 29.4774 29.9875 29.405L28.1287 21.8347ZM17.6088 18.8296L15 20.0246L12.3912 18.8296V17.2195C13.1874 17.5637 14.086 17.7445 15 17.7445C15.914 17.7445 16.8126 17.5637 17.6088 17.2195V18.8296ZM8.35412 8.58915L14.837 9.8642C14.9429 9.89086 15.0571 9.89086 15.163 9.8642L21.6459 8.58915C21.5741 10.5492 20.485 13.7594 18.3458 15.5144C17.9334 15.8894 17.422 16.1929 16.8452 16.4049C16.2684 16.617 15.6395 16.7327 15 16.7445C14.3605 16.7327 13.7316 16.617 13.1548 16.4049C12.578 16.1929 12.0666 15.8894 11.6542 15.5144C9.51503 13.7594 8.42586 10.5492 8.35412 8.58915ZM15 26.7749C10.8129 26.7749 8.89544 23.4998 8.0215 20.5996L8.92153 20.3696L11.5955 22.4647C11.657 22.5122 11.7302 22.5499 11.8108 22.5757C11.8914 22.6014 11.9778 22.6147 12.0651 22.6147C12.1933 22.6159 12.3188 22.5862 12.4238 22.5297L14.3478 21.5447V25.5549C14.3478 25.6875 14.4165 25.8146 14.5388 25.9084C14.6611 26.0022 14.827 26.0549 15 26.0549C15.173 26.0549 15.3389 26.0022 15.4612 25.9084C15.5835 25.8146 15.6522 25.6875 15.6522 25.5549V21.5447L17.5762 22.5297C17.6812 22.5862 17.8067 22.6159 17.9349 22.6147C18.0222 22.6147 18.1086 22.6014 18.1892 22.5757C18.2698 22.5499 18.343 22.5122 18.4045 22.4647L21.0785 20.3696L21.9785 20.5996C21.1046 23.4998 19.1871 26.7749 15 26.7749Z" fill="#6B6A6A"/>
<path d="M15 15.3194C15.5395 15.3497 16.0782 15.2539 16.5451 15.0447C17.0121 14.8355 17.3854 14.5226 17.6158 14.1475C17.6465 14.0862 17.6612 14.0208 17.659 13.9552C17.6568 13.8895 17.6378 13.8249 17.603 13.7649C17.5682 13.7048 17.5183 13.6507 17.4562 13.6054C17.3941 13.5602 17.321 13.5248 17.241 13.5012C17.1611 13.4777 17.0758 13.4664 16.9902 13.4681C16.9046 13.4698 16.8202 13.4844 16.7419 13.5111C16.6637 13.5377 16.593 13.576 16.534 13.6236C16.475 13.6712 16.4288 13.7273 16.3981 13.7886C16.2582 13.9721 16.0513 14.1202 15.8028 14.2146C15.5543 14.3089 15.2752 14.3453 15 14.3193C14.723 14.3458 14.442 14.3088 14.1924 14.2129C13.9428 14.117 13.7359 13.9665 13.5978 13.7805C13.5343 13.6571 13.4095 13.5581 13.2509 13.5053C13.0922 13.4525 12.9126 13.4501 12.7517 13.4988C12.5908 13.5474 12.4616 13.6431 12.3927 13.7648C12.3238 13.8864 12.3207 14.0241 12.3842 14.1475C12.6146 14.5227 12.9879 14.8355 13.4549 15.0447C13.9219 15.2539 14.4606 15.3497 15 15.3194ZM29.4527 7.68407C29.4295 7.56518 29.3518 7.45653 29.2334 7.3777C29.115 7.29887 28.9638 7.25502 28.807 7.25405H28.6309V3.25888C28.6311 3.14936 28.5847 3.04277 28.4988 2.95526C28.4129 2.86775 28.2922 2.80407 28.1548 2.77386L15.1761 0.0187498C15.061 -0.00624993 14.9391 -0.00624993 14.824 0.0187498L1.84524 2.77386C1.70793 2.80407 1.58718 2.86775 1.50127 2.95526C1.41537 3.04277 1.36899 3.14936 1.36914 3.25888C1.36913 3.3678 1.41568 3.47372 1.50167 3.56041C1.58766 3.64711 1.70834 3.70981 1.84524 3.7389L14.824 6.49902C14.9388 6.52569 15.0613 6.52569 15.1761 6.49902L27.3266 3.91391V7.25405H27.157C27.0002 7.25502 26.849 7.29887 26.7306 7.3777C26.6123 7.45653 26.5345 7.56518 26.5113 7.68407L25.97 10.6942C25.9575 10.7656 25.9649 10.8382 25.9919 10.9072C26.0189 10.9761 26.0648 11.0399 26.1265 11.0942C26.1871 11.148 26.2622 11.1911 26.3467 11.2205C26.4311 11.2498 26.5229 11.2648 26.6157 11.2642H29.3484C29.4411 11.2648 29.5329 11.2498 29.6173 11.2205C29.7018 11.1911 29.7769 11.148 29.8375 11.0942C29.8992 11.0399 29.9451 10.9761 29.9721 10.9072C29.9991 10.8382 30.0066 10.7656 29.994 10.6942L29.4527 7.68407ZM27.3657 10.2642L27.7309 8.25409H28.2331L28.5983 10.2642H27.3657Z" fill="#6B6A6A"/>
</svg>
