<svg width="20" height="20" viewBox="0 0 30 30" fill="none" xmlns="http://www.w3.org/2000/svg">
<path fill-rule="evenodd" clip-rule="evenodd" d="M14.9999 0C8.01358 0 2.30904 4.94966 2.30904 10.9995V15.002C2.30904 18.0784 0.917552 20.6788 0.355181 21.6529C-0.774178 23.6131 0.932564 25.9935 3.45919 25.9935H9.34618C9.88199 28.2718 12.2215 30 15.0045 30C17.7875 30 20.1271 28.2718 20.6629 25.9935H26.5499C29.0765 25.9935 30.7717 23.6091 29.6446 21.6529C29.0857 20.6828 27.7023 18.0794 27.7023 15.002V10.9995C27.7023 4.94866 21.9862 0 14.9999 0ZM14.9999 1.99227C20.7275 1.99227 25.3997 6.03781 25.3997 10.9995V15.002C25.3997 18.5925 26.9725 21.4949 27.5822 22.553C27.9864 23.2551 27.454 24.0012 26.5499 24.0012H3.45919C2.54808 24.0012 2.01342 23.2581 2.4199 22.554C3.02846 21.4969 4.60933 18.5935 4.60933 15.002V10.9995C4.60933 6.03681 9.27112 1.99227 14.9999 1.99227ZM14.9999 3.99253C10.5425 3.99253 6.91886 7.13795 6.91886 10.9995C6.91886 11.2647 7.04053 11.5191 7.25709 11.7067C7.47365 11.8942 7.76737 11.9996 8.07363 11.9996C8.37989 11.9996 8.67361 11.8942 8.89017 11.7067C9.10673 11.5191 9.22839 11.2647 9.22839 10.9995C9.22303 10.3415 9.3686 9.68907 9.65666 9.08017C9.94472 8.47127 10.3695 7.91798 10.9064 7.4524C11.4434 6.98683 12.0817 6.61824 12.7844 6.36802C13.4871 6.1178 14.2402 5.99094 14.9999 5.9948C15.3065 5.9948 15.6005 5.88932 15.8173 5.70157C16.034 5.51383 16.1558 5.25918 16.1558 4.99367C16.1558 4.72815 16.034 4.47351 15.8173 4.28576C15.6005 4.09801 15.3065 3.99253 14.9999 3.99253ZM8.07594 13.9979C7.76968 13.9979 7.47596 14.1032 7.2594 14.2908C7.04284 14.4784 6.92117 14.7327 6.92117 14.998C6.92117 15.2633 7.04284 15.5176 7.2594 15.7052C7.47596 15.8928 7.76968 15.9981 8.07594 15.9981C8.3822 15.9981 8.67592 15.8928 8.89248 15.7052C9.10904 15.5176 9.2307 15.2633 9.2307 14.998C9.2307 14.7327 9.10904 14.4784 8.89248 14.2908C8.67592 14.1032 8.3822 13.9979 8.07594 13.9979ZM11.7481 25.9935H18.261C18.0277 26.5803 17.5883 27.0893 17.0044 27.4491C16.4204 27.8088 15.7212 28.0014 15.0045 27.9997C14.2879 28.0014 13.5886 27.8088 13.0047 27.4491C12.4207 27.0893 11.9813 26.5803 11.7481 25.9935Z" fill="#83EAF8"/>
</svg>
