<svg width="20" height="20" viewBox="0 0 30 30" fill="none" xmlns="http://www.w3.org/2000/svg">
<g id="Component 6">
<rect width="30" height="30" fill="#6B6A6A" class="hoverable"/>
<path id="Vector" d="M28.75 29.6591H1.25002C1.02901 29.6591 0.817045 29.5872 0.660765 29.4594C0.504485 29.3315 0.416687 29.1581 0.416687 28.9773V3.06817C0.416687 2.88734 0.504485 2.71392 0.660765 2.58605C0.817045 2.45819 1.02901 2.38635 1.25002 2.38635H28.75C28.971 2.38635 29.183 2.45819 29.3393 2.58605C29.4956 2.71392 29.5834 2.88734 29.5834 3.06817V28.9773C29.5834 29.1581 29.4956 29.3315 29.3393 29.4594C29.183 29.5872 28.971 29.6591 28.75 29.6591Z" fill="#6B6A6A" class="hoverable"/>
<path id="Vector_2" d="M28.75 30H1.25C0.560833 30 0 29.5411 0 28.9772V3.06814C0 2.50427 0.560833 2.04541 1.25 2.04541H7.11833C7.22884 2.04541 7.33482 2.08133 7.41296 2.14526C7.4911 2.20919 7.535 2.2959 7.535 2.38632C7.535 2.47673 7.4911 2.56345 7.41296 2.62738C7.33482 2.69131 7.22884 2.72723 7.11833 2.72723H1.25C1.13949 2.72723 1.03351 2.76315 0.955372 2.82708C0.877232 2.89101 0.833333 2.97772 0.833333 3.06814V28.9772C0.833333 29.0676 0.877232 29.1544 0.955372 29.2183C1.03351 29.2822 1.13949 29.3181 1.25 29.3181H28.75C28.8605 29.3181 28.9665 29.2822 29.0446 29.2183C29.1228 29.1544 29.1667 29.0676 29.1667 28.9772V3.06814C29.1667 2.97772 29.1228 2.89101 29.0446 2.82708C28.9665 2.76315 28.8605 2.72723 28.75 2.72723H22.9525C22.842 2.72723 22.736 2.69131 22.6579 2.62738C22.5797 2.56345 22.5358 2.47673 22.5358 2.38632C22.5358 2.2959 22.5797 2.20919 22.6579 2.14526C22.736 2.08133 22.842 2.04541 22.9525 2.04541H28.75C29.4392 2.04541 30 2.50427 30 3.06814V28.9772C30 29.5411 29.4392 30 28.75 30Z" fill="#6B6A6A"/>
<path id="Vector_3" d="M21.9325 27.6136H3.33335C3.22285 27.6136 3.11687 27.5777 3.03873 27.5138C2.96059 27.4499 2.91669 27.3631 2.91669 27.2727V4.09091C2.91669 4.00049 2.96059 3.91378 3.03873 3.84985C3.11687 3.78592 3.22285 3.75 3.33335 3.75H26.6667C26.7772 3.75 26.8832 3.78592 26.9613 3.84985C27.0395 3.91378 27.0834 4.00049 27.0834 4.09091V24.045C27.0833 24.095 27.0699 24.1443 27.044 24.1896C27.018 24.2348 26.9803 24.2748 26.9334 24.3068L22.1992 27.5345C22.1245 27.5859 22.03 27.6139 21.9325 27.6136Z" fill="#F5F5F5"/>
<path id="Vector_4" d="M22.2291 27.2728H3.33331V4.09094H7.08331C7.19382 4.09094 7.2998 4.12686 7.37794 4.19079C7.45608 4.25472 7.49998 4.34144 7.49998 4.43185C7.49998 4.52227 7.45608 4.60898 7.37794 4.67291C7.2998 4.73684 7.19382 4.77276 7.08331 4.77276H4.16665V26.5909H21.9375L25.8333 24.0409V4.77276H22.9166C22.8061 4.77276 22.7002 4.73684 22.622 4.67291C22.5439 4.60898 22.5 4.52227 22.5 4.43185C22.5 4.34144 22.5439 4.25472 22.622 4.19079C22.7002 4.12686 22.8061 4.09094 22.9166 4.09094H26.6666V24.3689L22.2291 27.2728Z" fill="#6B6A6A"/>
<path id="Vector_5" d="M21.9325 27.9545H3.33333C2.87417 27.9545 2.5 27.6484 2.5 27.2727V4.09088C2.5 3.71519 2.87417 3.40906 3.33333 3.40906H7.08333C7.19384 3.40906 7.29982 3.44497 7.37796 3.50891C7.4561 3.57284 7.5 3.65955 7.5 3.74997C7.5 3.84038 7.4561 3.92709 7.37796 3.99103C7.29982 4.05496 7.19384 4.09088 7.08333 4.09088H3.33333V27.2727H21.9325L26.6667 24.045V4.09088H22.9167C22.8062 4.09088 22.7002 4.05496 22.622 3.99103C22.5439 3.92709 22.5 3.84038 22.5 3.74997C22.5 3.65955 22.5439 3.57284 22.622 3.50891C22.7002 3.44497 22.8062 3.40906 22.9167 3.40906H26.6667C27.1258 3.40906 27.5 3.71519 27.5 4.09088V24.045C27.5 24.2468 27.3917 24.4377 27.2017 24.5679L22.4667 27.7963C22.3167 27.8986 22.1275 27.9545 21.9325 27.9545Z" fill="#6B6A6A"/>
<path id="Vector_6" d="M1.24998 27.9546C1.13947 27.9546 1.03349 27.9187 0.955352 27.8547C0.877212 27.7908 0.833313 27.7041 0.833313 27.6137V4.43185C0.833313 4.34144 0.877212 4.25472 0.955352 4.19079C1.03349 4.12686 1.13947 4.09094 1.24998 4.09094C1.36049 4.09094 1.46647 4.12686 1.54461 4.19079C1.62275 4.25472 1.66665 4.34144 1.66665 4.43185V27.6137C1.66665 27.7041 1.62275 27.7908 1.54461 27.8547C1.46647 27.9187 1.36049 27.9546 1.24998 27.9546Z" fill="#6B6A6A"/>
<path id="Vector_7" d="M22.0833 27.3225V24.5455C22.0833 24.4551 22.1272 24.3684 22.2054 24.3044C22.2835 24.2405 22.3895 24.2046 22.5 24.2046H26.6225C26.6568 24.2045 26.6903 24.2132 26.7184 24.2293C26.7465 24.2454 26.7679 24.2682 26.7795 24.2946C26.7912 24.321 26.7926 24.3497 26.7836 24.3768C26.7746 24.4039 26.7556 24.428 26.7291 24.446L22.3566 27.4275C22.3323 27.4441 22.3027 27.4547 22.2712 27.458C22.2398 27.4613 22.2078 27.4572 22.1791 27.4462C22.1505 27.4352 22.1262 27.4177 22.1092 27.3958C22.0923 27.3739 22.0833 27.3485 22.0833 27.3225Z" fill="#6B6A6A"/>
<path id="Vector_8" d="M22.2517 27.8005C22.0968 27.8001 21.9484 27.7497 21.8388 27.6601C21.7292 27.5706 21.6673 27.4492 21.6667 27.3225V24.5455C21.6667 24.1698 22.0409 23.8636 22.5 23.8636H26.6225C26.8717 23.8636 27.0875 23.9877 27.1717 24.1793C27.2132 24.2716 27.2185 24.3722 27.1868 24.467C27.1551 24.5618 27.0881 24.6462 26.995 24.7084L22.6234 27.6893C22.5192 27.7608 22.3877 27.8002 22.2517 27.8005ZM22.5 24.5455V26.8861L25.9325 24.5455H22.5Z" fill="#6B6A6A"/>
<path id="Vector_9" d="M17.3591 1.70458C17.1884 1.30659 16.871 0.961714 16.4507 0.717484C16.0304 0.473255 15.5279 0.341697 15.0124 0.340942C14.497 0.341738 13.9946 0.473323 13.5744 0.717556C13.1543 0.961789 12.8371 1.30664 12.6666 1.70458H9.17906C9.06855 1.70458 8.96257 1.7405 8.88443 1.80443C8.80629 1.86836 8.76239 1.95507 8.76239 2.04549V4.77276C8.76239 4.86318 8.80629 4.94989 8.88443 5.01382C8.96257 5.07775 9.06855 5.11367 9.17906 5.11367H20.8457C20.9562 5.11367 21.0622 5.07775 21.1404 5.01382C21.2185 4.94989 21.2624 4.86318 21.2624 4.77276V2.04549C21.2624 1.95507 21.2185 1.86836 21.1404 1.80443C21.0622 1.7405 20.9562 1.70458 20.8457 1.70458H17.3591Z" fill="#6B6A6A"/>
<path id="Vector_10" d="M20.8458 5.45455H9.1791C8.71993 5.45455 8.34576 5.14841 8.34576 4.77273V2.04545C8.34576 1.66977 8.71993 1.36364 9.1791 1.36364H12.3883C12.624 0.957012 12.9955 0.613216 13.4598 0.371932C13.9241 0.130647 14.4624 0.00170885 15.0124 0C15.5626 0.00158045 16.1011 0.130458 16.5655 0.37175C17.03 0.613042 17.4016 0.956907 17.6374 1.36364H20.8458C21.3049 1.36364 21.6791 1.66977 21.6791 2.04545V4.77273C21.6791 5.14841 21.3049 5.45455 20.8458 5.45455ZM9.1791 2.04545V4.77273H20.8458V2.04545H17.3591C17.273 2.04541 17.1891 2.02356 17.1188 1.98291C17.0485 1.94225 16.9953 1.88479 16.9666 1.81841C16.8236 1.48735 16.5592 1.2005 16.2094 0.99706C15.8596 0.793621 15.4416 0.683525 15.0124 0.681818C14.1391 0.681818 13.3541 1.13864 13.0591 1.81841C13.0303 1.8849 12.977 1.94244 12.9066 1.98311C12.8361 2.02377 12.752 2.04556 12.6658 2.04545H9.1791Z" fill="#6B6A6A"/>
<path id="Vector_11" d="M9.59574 4.09085C9.48524 4.09085 9.37926 4.05494 9.30112 3.991C9.22298 3.92707 9.17908 3.84036 9.17908 3.74994V2.0454H12.6657C12.7518 2.04536 12.8358 2.02351 12.906 1.98285C12.9763 1.9422 13.0295 1.88473 13.0582 1.81835C13.2012 1.48729 13.4657 1.20044 13.8155 0.997004C14.1652 0.793566 14.5833 0.683469 15.0124 0.681763C15.1229 0.681763 15.2289 0.71768 15.307 0.781613C15.3852 0.845546 15.4291 0.932257 15.4291 1.02267C15.4291 1.11309 15.3852 1.1998 15.307 1.26373C15.2289 1.32766 15.1229 1.36358 15.0124 1.36358C14.7553 1.36525 14.5051 1.43175 14.2959 1.55401C14.0867 1.67626 13.9286 1.84833 13.8432 2.04676C13.6666 2.45381 13.1932 2.72722 12.6649 2.72722H10.0116V3.74994C10.0117 3.79468 10.001 3.839 9.98016 3.88035C9.95932 3.92171 9.9287 3.9593 9.89008 3.99096C9.85145 4.02263 9.80557 4.04775 9.75507 4.06489C9.70456 4.08203 9.65042 4.09085 9.59574 4.09085Z" fill="#6B6A6A"/>
<path id="Vector_12" d="M10.4167 22.4999H7.08335C6.97285 22.4999 6.86687 22.464 6.78873 22.4001C6.71059 22.3362 6.66669 22.2495 6.66669 22.159V19.4318C6.66669 19.3413 6.71059 19.2546 6.78873 19.1907C6.86687 19.1268 6.97285 19.0909 7.08335 19.0909H10.4167C10.5272 19.0909 10.6332 19.1268 10.7113 19.1907C10.7895 19.2546 10.8334 19.3413 10.8334 19.4318V22.159C10.8334 22.2495 10.7895 22.3362 10.7113 22.4001C10.6332 22.464 10.5272 22.4999 10.4167 22.4999ZM7.50002 21.8181H10V19.7727H7.50002V21.8181ZM10.4167 17.0454H7.08335C6.97285 17.0454 6.86687 17.0095 6.78873 16.9455C6.71059 16.8816 6.66669 16.7949 6.66669 16.7045V13.9772C6.66669 13.8868 6.71059 13.8001 6.78873 13.7362C6.86687 13.6722 6.97285 13.6363 7.08335 13.6363H10.4167C10.5272 13.6363 10.6332 13.6722 10.7113 13.7362C10.7895 13.8001 10.8334 13.8868 10.8334 13.9772V16.7045C10.8334 16.7949 10.7895 16.8816 10.7113 16.9455C10.6332 17.0095 10.5272 17.0454 10.4167 17.0454ZM7.50002 16.3636H10V14.3181H7.50002V16.3636ZM10.4167 11.5909H7.08335C6.97285 11.5909 6.86687 11.5549 6.78873 11.491C6.71059 11.4271 6.66669 11.3404 6.66669 11.2499V8.52267C6.66669 8.43226 6.71059 8.34555 6.78873 8.28161C6.86687 8.21768 6.97285 8.18176 7.08335 8.18176H10.4167C10.5272 8.18176 10.6332 8.21768 10.7113 8.28161C10.7895 8.34555 10.8334 8.43226 10.8334 8.52267V11.2499C10.8334 11.3404 10.7895 11.4271 10.7113 11.491C10.6332 11.5549 10.5272 11.5909 10.4167 11.5909ZM7.50002 10.909H10V8.86358H7.50002V10.909ZM22.9167 21.8181H12.9167C12.8062 21.8181 12.7002 21.7822 12.6221 21.7183C12.5439 21.6543 12.5 21.5676 12.5 21.4772C12.5 21.3868 12.5439 21.3001 12.6221 21.2362C12.7002 21.1722 12.8062 21.1363 12.9167 21.1363H22.9167C23.0272 21.1363 23.1332 21.1722 23.2113 21.2362C23.2895 21.3001 23.3334 21.3868 23.3334 21.4772C23.3334 21.5676 23.2895 21.6543 23.2113 21.7183C23.1332 21.7822 23.0272 21.8181 22.9167 21.8181ZM22.9167 20.4545H12.9167C12.8062 20.4545 12.7002 20.4186 12.6221 20.3546C12.5439 20.2907 12.5 20.204 12.5 20.1136C12.5 20.0232 12.5439 19.9365 12.6221 19.8725C12.7002 19.8086 12.8062 19.7727 12.9167 19.7727H22.9167C23.0272 19.7727 23.1332 19.8086 23.2113 19.8725C23.2895 19.9365 23.3334 20.0232 23.3334 20.1136C23.3334 20.204 23.2895 20.2907 23.2113 20.3546C23.1332 20.4186 23.0272 20.4545 22.9167 20.4545ZM22.9167 16.3636H12.9167C12.8062 16.3636 12.7002 16.3277 12.6221 16.2637C12.5439 16.1998 12.5 16.1131 12.5 16.0227C12.5 15.9323 12.5439 15.8455 12.6221 15.7816C12.7002 15.7177 12.8062 15.6818 12.9167 15.6818H22.9167C23.0272 15.6818 23.1332 15.7177 23.2113 15.7816C23.2895 15.8455 23.3334 15.9323 23.3334 16.0227C23.3334 16.1131 23.2895 16.1998 23.2113 16.2637C23.1332 16.3277 23.0272 16.3636 22.9167 16.3636ZM22.9167 14.9999H12.9167C12.8062 14.9999 12.7002 14.964 12.6221 14.9001C12.5439 14.8362 12.5 14.7495 12.5 14.659C12.5 14.5686 12.5439 14.4819 12.6221 14.418C12.7002 14.354 12.8062 14.3181 12.9167 14.3181H22.9167C23.0272 14.3181 23.1332 14.354 23.2113 14.418C23.2895 14.4819 23.3334 14.5686 23.3334 14.659C23.3334 14.7495 23.2895 14.8362 23.2113 14.9001C23.1332 14.964 23.0272 14.9999 22.9167 14.9999ZM22.9167 10.909H12.9167C12.8062 10.909 12.7002 10.8731 12.6221 10.8092C12.5439 10.7453 12.5 10.6585 12.5 10.5681C12.5 10.4777 12.5439 10.391 12.6221 10.3271C12.7002 10.2631 12.8062 10.2272 12.9167 10.2272H22.9167C23.0272 10.2272 23.1332 10.2631 23.2113 10.3271C23.2895 10.391 23.3334 10.4777 23.3334 10.5681C23.3334 10.6585 23.2895 10.7453 23.2113 10.8092C23.1332 10.8731 23.0272 10.909 22.9167 10.909ZM22.9167 9.5454H12.9167C12.8062 9.5454 12.7002 9.50948 12.6221 9.44555C12.5439 9.38162 12.5 9.2949 12.5 9.20449C12.5 9.11408 12.5439 9.02736 12.6221 8.96343C12.7002 8.8995 12.8062 8.86358 12.9167 8.86358H22.9167C23.0272 8.86358 23.1332 8.8995 23.2113 8.96343C23.2895 9.02736 23.3334 9.11408 23.3334 9.20449C23.3334 9.2949 23.2895 9.38162 23.2113 9.44555C23.1332 9.50948 23.0272 9.5454 22.9167 9.5454Z" fill="#6B6A6A"/>
</g>
</svg>
